<svg width="49" height="30" viewBox="0 0 49 30" fill="none" xmlns="http://www.w3.org/2000/svg">
<path d="M25.1163 8.68622L24.5093 8.33738L24.6837 8.03738L25.2907 8.38622L25.1163 8.68622ZM23.4767 8.85366L23.3023 8.55366L23.9023 8.20483L24.0767 8.50483L23.4767 8.85366ZM26.3302 9.3839L25.7163 9.03506L25.8907 8.73506L26.5046 9.0839L26.3302 9.3839ZM22.2628 9.55134L22.0883 9.25134L22.6953 8.9025L22.8697 9.2025L22.2628 9.55134V9.55134ZM27.5372 10.0816L26.9302 9.73273L27.1046 9.43273L27.7116 9.78157L27.5372 10.0816ZM21.0628 10.256L20.8883 9.94901L21.4953 9.60018L21.6697 9.90017L21.0628 10.256ZM28.7372 10.7862L28.1372 10.4374L28.3116 10.1304L28.9186 10.4862L28.7372 10.7862ZM19.8349 10.9537L19.6604 10.6537L20.2674 10.3048L20.4418 10.6048L19.8349 10.9537ZM29.8953 11.4839L29.2953 11.1351L29.4697 10.8351L30.0697 11.1839L29.8953 11.4839ZM18.5721 11.6513L18.4325 11.3513L19.0465 11.0025L19.2209 11.3025L18.5721 11.6513ZM31.1302 12.1816L30.5232 11.8327L30.6977 11.5327L31.3046 11.8816L31.1302 12.1816ZM17.379 12.349L17.2046 12.049L17.8046 11.7002L17.979 12.0002L17.379 12.349ZM32.3372 12.8792L31.7302 12.5304L31.9046 12.2304L32.5116 12.5792L32.3372 12.8792ZM16.1721 13.0467L15.9977 12.7467L16.5977 12.3978L16.7721 12.6978L16.1721 13.0467ZM33.5442 13.5769L32.9372 13.2281L33.1256 12.9281L33.7325 13.2769L33.5442 13.5769ZM14.9581 13.7444L14.7767 13.4444L15.3907 13.0955L15.5651 13.3955L14.9581 13.7444V13.7444ZM34.7721 14.2816L34.186 13.9258L34.3604 13.6258L34.9604 13.9746L34.7721 14.2816V14.2816ZM13.7581 14.449L13.5767 14.1839L14.1837 13.8281L14.3581 14.1351L13.7581 14.449ZM35.979 14.9792L35.379 14.6304L35.5535 14.3304L36.1535 14.6792L35.979 14.9792ZM12.5581 15.1467L12.3697 14.8816L12.9697 14.5327L13.1442 14.8327L12.5581 15.1467ZM37.2 15.6769L36.593 15.3281L36.7674 15.0281L37.3744 15.3769L37.2 15.6769ZM11.3442 15.8444L11.1628 15.5792L11.7628 15.2304L11.9372 15.5304L11.3442 15.8444ZM38.3721 16.3746L37.7651 16.0258L37.9953 15.7258L38.6023 16.0746L38.3721 16.3746ZM10.0883 16.542L9.93486 16.2769L10.5418 15.9281L10.7163 16.2281L10.0883 16.542V16.542ZM39.579 17.0723L38.9721 16.7234L39.1465 16.4234L39.7535 16.7723L39.579 17.0723ZM8.88137 17.2397L8.72788 16.9746L9.33486 16.6258L9.50928 16.9258L8.88137 17.2397V17.2397ZM40.786 17.7699L40.186 17.4211L40.3604 17.1211L40.9604 17.4699L40.786 17.7699ZM7.75114 17.9444L7.59765 17.6723L8.20463 17.3234L8.37905 17.6234L7.75114 17.9444V17.9444ZM42.0767 18.4746L41.4697 18.1258L41.6511 17.8188L42.1884 18.1746L42.0767 18.4746V18.4746ZM6.53719 18.642L6.3837 18.3699L6.9837 18.0211L7.15812 18.3211L6.53719 18.642V18.642ZM43.2907 19.1723L42.6837 18.8234L42.8581 18.5234L43.4651 18.8723L43.2907 19.1723ZM5.33021 19.3397L5.17672 19.0676L5.77672 18.7188L5.95114 19.0188L5.33021 19.3397V19.3397ZM44.4697 19.8699L43.8628 19.5211L44.0372 19.2211L44.6442 19.5699L44.4697 19.8699ZM4.08835 20.0374L3.93486 19.7653L4.54184 19.4165L4.71626 19.7165L4.08835 20.0374V20.0374ZM45.6837 20.5676L45.0767 20.2188L45.2511 19.9188L45.8581 20.2676L45.6837 20.5676ZM2.83254 20.7351L2.67905 20.463L3.28602 20.1141L3.46742 20.4141L2.83254 20.7351V20.7351ZM46.8697 21.2653L46.2697 20.9165L46.4442 20.6165L47.0442 20.9653L46.8697 21.2653ZM1.64649 21.4327L1.493 21.1606L2.09998 20.8118L2.2744 21.1118L1.64649 21.4327V21.4327ZM0.725558 21.9699L0.55114 21.6699L0.858117 21.4816L1.03254 21.7885L0.725558 21.9699ZM48.0767 21.9699L47.4697 21.6141L47.6442 21.3141L48.2511 21.6699L48.0767 21.9699Z" fill="#38D611"/>
<path d="M2.05116 21.9909H1.35349V21.6699H2.05116V21.9909ZM3.44651 21.9909H2.74883V21.6699H3.44651V21.9909ZM4.84186 21.9909H4.18604V21.6699H4.88372L4.84186 21.9909V21.9909ZM6.23721 21.9909H5.58139V21.6699H6.27907L6.23721 21.9909ZM7.63256 21.9909H6.97674V21.6699H7.67442L7.63256 21.9909ZM9.0279 21.9909H8.37209V21.6699H9.06976L9.0279 21.9909ZM10.4233 21.9909H9.76744V21.6699H10.4651L10.4233 21.9909ZM11.8186 21.9909H11.1628V21.6699H11.8605L11.8186 21.9909V21.9909ZM13.214 21.9909H12.5581V21.6699H13.2558L13.214 21.9909V21.9909ZM14.6093 21.9909H13.9535V21.6699H14.6512L14.6093 21.9909V21.9909ZM16.0046 21.9909H15.3488V21.6699H16.0465L16.0046 21.9909V21.9909ZM17.4 21.9909H16.7442V21.6699H17.4419L17.4 21.9909V21.9909ZM18.7953 21.9909H18.1395V21.6699H18.8372L18.7953 21.9909V21.9909ZM20.1907 21.9909H19.5349V21.6699H20.2326L20.1907 21.9909V21.9909ZM21.586 21.9909H20.9302V21.6699H21.6279L21.586 21.9909V21.9909ZM22.9814 21.9909H22.3256V21.6699H23.0233L22.9814 21.9909ZM24.3767 21.9909H23.7209V21.6699H24.4186L24.3767 21.9909ZM25.7721 21.9909H25.1163V21.6699H25.814L25.7721 21.9909ZM27.1674 21.9909H26.5116V21.6699H27.2093L27.1674 21.9909ZM28.5628 21.9909H27.907V21.6699H28.6047L28.5628 21.9909ZM29.9581 21.9909H29.3023V21.6699H30L29.9581 21.9909ZM31.3535 21.9909H30.6977V21.6699H31.3953L31.3535 21.9909ZM32.7488 21.9909H32.093V21.6699H32.7907L32.7488 21.9909ZM34.1442 21.9909H33.4884V21.6699H34.186L34.1442 21.9909ZM35.5395 21.9909H34.8837V21.6699H35.5814L35.5395 21.9909ZM36.9349 21.9909H36.2791V21.6699H36.9767L36.9349 21.9909ZM38.3302 21.9909H37.6744V21.6699H38.3721L38.3302 21.9909ZM39.7256 21.9909H39.0698V21.6699H39.7674L39.7256 21.9909ZM41.1209 21.9909H40.4651V21.6699H41.1628L41.1209 21.9909ZM42.5163 21.9909H41.8186V21.6699H42.5163V21.9909ZM43.9116 21.9909H43.214V21.6699H43.9116V21.9909ZM45.307 21.9909H44.6093V21.6699H45.307V21.9909ZM46.7023 21.9909H46.0047V21.6699H46.7023V21.9909ZM48.0977 21.9909H47.4V21.6699H48.0977V21.9909Z" fill="#38D611"/>
<path d="M35.5814 0V13.7512L24.4186 7.2907L13.2558 13.7512V0L0 7.67442V22.2209L12.5581 29.4907L24.4186 22.6256L36.2791 29.4907L48.8372 22.2209V7.68837L35.5814 0ZM1.35349 21.4186V8.49768L11.8186 2.44884V27.4395L1.35349 21.4186V21.4186ZM35.5814 27.4395L24.4186 21.014L13.2558 27.4395V15.3558L24.4186 8.9093L35.5814 15.3628V27.4395ZM47.4419 21.3907L36.9767 27.4395V2.44884L47.4419 8.49768V21.3907Z" fill="#3AD50D"/>
</svg>
